<?xml version="1.0" encoding="utf-8"?>
<!-- Generator: Adobe Illustrator 23.0.3, SVG Export Plug-In . SVG Version: 6.00 Build 0)  -->
<svg version="1.1" id="Layer_1" xmlns="http://www.w3.org/2000/svg" xmlns:xlink="http://www.w3.org/1999/xlink" x="0px" y="0px"
	 viewBox="0 0 500 500" style="enable-background:new 0 0 500 500;" xml:space="preserve">
<style type="text/css">
	.st0{fill:#757575;stroke:#263238;stroke-linecap:round;stroke-linejoin:round;}
	.st1{fill:#263238;}
	.st2{fill:#BFBFBF;stroke:#263238;stroke-miterlimit:10;}
	.st3{fill:#0FB0F7;stroke:#263238;stroke-linecap:round;stroke-linejoin:round;}
	.st4{fill:#0EA3D8;stroke:#263238;stroke-linecap:round;stroke-linejoin:round;}
	.st5{fill:none;stroke:#263238;stroke-linecap:round;stroke-linejoin:round;}
	.st6{fill:#CE79AB;}
	.st7{clip-path:url(#SVGID_2_);}
	.st8{opacity:0.3;fill-opacity:0.7;enable-background:new    ;}
	.st9{fill:#FFFFFF;}
	.st10{clip-path:url(#SVGID_4_);}
	.st11{opacity:0.4;fill:#382259;enable-background:new    ;}
	.st12{clip-path:url(#SVGID_6_);}
	.st13{clip-path:url(#SVGID_8_);}
	.st14{clip-path:url(#SVGID_10_);}
	.st15{fill:#FFFFFF;stroke:#263238;stroke-linecap:round;stroke-linejoin:round;}
	.st16{clip-path:url(#SVGID_12_);}
	.st17{clip-path:url(#SVGID_14_);}
	.st18{opacity:0.2;}
	.st19{fill:none;stroke:#FFFFFF;stroke-linecap:round;stroke-linejoin:round;}
	.st20{opacity:0.4;fill:none;stroke:#FFFFFF;stroke-linecap:round;stroke-linejoin:round;enable-background:new    ;}
	.st21{clip-path:url(#SVGID_16_);}
	.st22{opacity:0.4;fill:#8ED5ED;enable-background:new    ;}
	.st23{clip-path:url(#SVGID_18_);}
	.st24{clip-path:url(#SVGID_20_);}
	.st25{clip-path:url(#SVGID_22_);}
	.st26{fill:#757575;}
	.st27{clip-path:url(#SVGID_24_);}
	.st28{clip-path:url(#SVGID_26_);}
	.st29{clip-path:url(#SVGID_28_);}
	.st30{fill:#0FB0F7;}
	.st31{clip-path:url(#SVGID_30_);}
	.st32{clip-path:url(#SVGID_32_);}
</style>
<g id="freepik--character-1--inject-4">
	<path class="st0" d="M130.5,210.8c0,0-20.5,12.3-26.1,12.9s-19,0-19,0s-2.7,0.8-4.5,1.5c-2,0.8-6,1.8-5.1-0.4s5-5.9,7.4-5.9
		c0.6,0,2,1.2,2,1.2l14.4-1.2l8.3-3.9c0,0-1.9-0.4-4.5-0.8h-0.1c-5.4-1-14-2.6-15.9-2.6c-2.9-0.1-13.5-11.6-14.6-13
		s-6.8,0.3-8.2-0.3s-0.5-1.9-0.5-1.9c2.5-1.6,5.2-2.8,8.1-3.3c3.8-0.7,3.5,2.2,3.5,2.2s11,8.1,13.2,8.1s22.7-0.6,25.5-1.8
		c2.3-1,12.1,6.3,15.1,8.6C130.2,210.5,130.5,210.8,130.5,210.8z"/>
	<path class="st1" d="M72.9,198.5c-1.1-1.4-6.8,0.3-8.2-0.3s-0.5-1.9-0.5-1.9c2.4-1.6,5.2-2.8,8.1-3.3c3.8-0.7,3.5,2.2,3.5,2.2
		S72.7,195.9,72.9,198.5z"/>
	<path class="st1" d="M130.5,210.8c0,0-20.5,12.3-26.1,12.9s-19,0-19,0s-2.7,0.8-4.5,1.5c-2,0.8-6,1.8-5.1-0.4s5-5.9,7.4-5.9
		c0.6,0,2,1.2,2,1.2l14.4-1.2l8.3-3.9c0,0-1.9-0.4-4.5-0.8h0.1l8.9,0.5c0,0-4.4-1.4-4-2.1s6,2.1,13.5-0.7c2.4-1,5-1.6,7.6-1.7
		C130.2,210.5,130.5,210.8,130.5,210.8z"/>
	<path class="st2" d="M135.3,191.5l9.3,12.4l14.8,10.9c0,0,4.9,1.3,5.6,2.6c0.1,0.2,1,3.1,0.5,3c-2.2-0.4-3.1-1.4-3.7-1.1
		c-1.9,1,0.7,2.8,0,3c-1.9,0.3-4.2-5.1-4.2-5.1s-12.6-7.9-15.4-9.5s-12.4-9-12.4-9S132.5,192.9,135.3,191.5z"/>
	<path class="st3" d="M148.5,201.2l1.8,3.7c0,0,1.1-1,1.1,0s-6.7,7.4-9.1,6.9s-2.8-1.9-2.8-1.9s3.4-7.1,4.7-7.9
		S148.5,201.2,148.5,201.2z"/>
	<path class="st1" d="M112.4,194.9c0,0,22.3,11.6,21.6,15.5s-1.3,4.3-1.3,4.3s8.1-2.7,9.2-7.9S129,187.8,112.4,194.9z"/>
	<path class="st1" d="M120.7,182.6c6.1,0.5,12,2.8,16.9,6.5c6.5,5,10.6,10.5,10.1,12.9c-0.8,3.8-13.8,8.6-22.1,10.8
		s-17.3-4-17.2-7.9s4.7-3.5,4.7-3.5S117.3,185.7,120.7,182.6z"/>
	<path class="st3" d="M132.8,188.5c-2.4-0.8-5.1,0.1-6.6,2.1c-2.5,3.6-6.2,6.2-10.4,7.2c-9.1,2.2-22.7-0.7-22.7-0.7
		c1-3.2,2.1-6.4,3.6-9.5c2.5-5.5,8.4-9.2,14.7-10c2.7-0.4,15.3,4.5,15.3,4.5c19.4-5.5,22.7,15.8,22.7,15.8h-1.8
		c0.6,1.2,0.9,2.5,0.8,3.8l-5.6,5c-4.2,9.4-13.8,10-14.8,8.4c0,0,12.4-0.1,15.6-19.7C144.1,192.4,137.2,189.9,132.8,188.5z"/>
	<path class="st2" d="M120.7,182.6l-15.3-2.9l-16.3-8.4c0,0-3.4-3.9-4.8-3.9c-0.3,0-3.2,0.5-2.9,0.9c1.3,1.7,2.7,2.2,2.7,2.9
		c0,2.1-2.8,0.7-2.7,1.3c0.5,1.8,6.4,1.5,6.4,1.5s12.7,7.9,15.3,9.6s13.5,7.1,13.5,7.1S120.7,185.7,120.7,182.6z"/>
	<path class="st4" d="M122.6,188.9c-2.2,3.6-8.2,4-8.2,4l-4.9-4.6l-2.3-0.6c0.9-1.7,1.2-8.6,1.2-8.6s11.2,2.6,12.9,2.1
		s2.3,4.2,2.3,4.2"/>
	<path class="st5" d="M125.6,188.9c0,0,2.3-3.9,0-6.3c0,0,5.8-3.2,13.1,0.6s9.9,8.9,10.8,14.7c0,0-4.2-1.5-6,3.6"/>
	<path class="st1" d="M149.3,181.8c1.6,0.5,3.8,3,2.1,3.8s-0.8,1.8-0.7,2.2s0.2,1.3-1.3,1.4s-1.6-0.5-2.2,0.4s0.4,0.4-1.1,1
		s-1.2,0.7-2.3,0.7s-2.4,0.7-3.1-1.1S146.3,180.9,149.3,181.8z"/>
	<path class="st2" d="M136.7,176.6c-7.4-0.4-9.1,11.8-3.3,19.2C139.2,203.2,156.5,177.7,136.7,176.6z"/>
	<path class="st1" d="M134.5,184c0.8-1.2,3.7,2.5,4,1.6s1.7,1.1,2.3,1.3c0.9,0.1,1.9,0,2.8-0.4c0.8-0.4,3.7,1.4,4.6,0.5
		c0.5-0.4,0.7-1.1,0.5-1.7c0,0,2.2-0.3,2.6-1.3s-1.3,0.4-0.5-1.4s3-3,1.4-3.8s-2.7-1.6-2.1-3.1s0.2-3.6-1.1-3.6s-4.7,0.9-4.6-0.7
		s-5.3-2.2-6.1-1.1s-3-0.6-4.1-0.6s-4.5,2.4-4,3.9s-0.6,1.6-1.1,3c-0.4,1.1-0.3,2.3,0.3,3.3c0.4,0.4-2-0.4-1.1,1.7s0.9,2.9,1.3,3.1
		s0.5-2.3,1.9-2.8s0.9,3.4,0.9,3.4S133.5,185.5,134.5,184z"/>
	<path class="st5" d="M134,186.8c1.1-0.4,2.3-0.3,3.3,0.3"/>
	<path class="st5" d="M141.4,187.9c1-0.5,2.3-0.1,2.9,0.9c0,0,0,0,0,0.1"/>
	<path class="st5" d="M139.5,190.3c-0.2,2.1,0.7,3.6-1.6,3.2"/>
	<path class="st1" d="M136,189.7c-0.1,0.4-0.4,0.6-0.6,0.6s-0.4-0.4-0.3-0.8s0.4-0.6,0.6-0.6S136,189.3,136,189.7z"/>
	<path class="st1" d="M142.4,190.7c-0.1,0.4-0.4,0.6-0.6,0.6s-0.4-0.4-0.3-0.8s0.4-0.6,0.6-0.6S142.5,190.3,142.4,190.7z"/>
</g>
<g id="freepik--character-3--inject-4">
	<path class="st6" d="M398.9,185.9c-0.6,0.2-1.3,0.3-1.9,0.1c-2.5-0.3-5.9-2.1-6.6-4.8c0-0.2-0.1-0.4-0.2-0.5
		c-0.4-1.6-1.7-2.9-3.3-3.3c0,0-1.6-1.3-1.6-2.2s1.1-2.9,0.8-4.4s0.5-4.3,1.7-4.9c1.9-0.9,4.2-0.6,5.8,0.8c2,1.8,3.9,8,5.7,11.2
		S400.9,185,398.9,185.9z"/>
	<g>
		<defs>
			<path id="SVGID_1_" d="M398.9,185.9c-0.6,0.2-1.3,0.3-1.9,0.1c-2.5-0.3-5.9-2.1-6.6-4.8c0-0.2-0.1-0.4-0.2-0.5
				c-0.4-1.6-1.7-2.9-3.3-3.3c0,0-1.6-1.3-1.6-2.2s1.1-2.9,0.8-4.4s0.5-4.3,1.7-4.9c1.9-0.9,4.2-0.6,5.8,0.8c2,1.8,3.9,8,5.7,11.2
				S400.9,185,398.9,185.9z"/>
		</defs>
		<clipPath id="SVGID_2_">
			<use xlink:href="#SVGID_1_"  style="overflow:visible;"/>
		</clipPath>
		<g class="st7">
			<path class="st8" d="M397,186c-2.5-0.3-5.9-2.1-6.6-4.8c0-0.2-0.1-0.4-0.2-0.5c1.6-0.1,4.5-1,4.9-5
				C395.2,175.7,400.1,181.7,397,186z"/>
		</g>
	</g>
	<path class="st5" d="M398.9,185.9c-0.6,0.2-1.3,0.3-1.9,0.1c-2.5-0.3-5.9-2.1-6.6-4.8c0-0.2-0.1-0.4-0.2-0.5
		c-0.4-1.6-1.7-2.9-3.3-3.3c0,0-1.6-1.3-1.6-2.2s1.1-2.9,0.8-4.4s0.5-4.3,1.7-4.9c1.9-0.9,4.2-0.6,5.8,0.8c2,1.8,3.9,8,5.7,11.2
		S400.9,185,398.9,185.9z"/>
	<path class="st5" d="M395.2,174.6c0,0-0.2,5.1-2.3,5.4"/>
	<path class="st9" d="M393.8,231.8l-9.8-26.2c-0.1-0.3-0.2-0.5-0.3-0.8c-1.5-5.4,0.5-12.7,1.8-17.3c0.4-1.5,0.7-3,0.9-4.6
		c0.3-2.5,0.5-5.1,0.6-7.6c3.4-2.5,6,1.7,6,1.7s-0.9,3.3,1.5,18.1S400.3,228.5,393.8,231.8z"/>
	<g>
		<defs>
			<path id="SVGID_3_" d="M393.8,231.8l-9.8-26.2c-0.1-0.3-0.2-0.5-0.3-0.8c-1.5-5.4,0.5-12.7,1.8-17.3c0.4-1.5,0.7-3,0.9-4.6
				c0.3-2.5,0.5-5.1,0.6-7.6c3.4-2.5,6,1.7,6,1.7s-0.9,3.3,1.5,18.1S400.3,228.5,393.8,231.8z"/>
		</defs>
		<clipPath id="SVGID_4_">
			<use xlink:href="#SVGID_3_"  style="overflow:visible;"/>
		</clipPath>
		<g class="st10">
			<path class="st11" d="M391.2,209.2l-7.5-4.4c-1.5-5.4,0.5-12.7,1.8-17.3c0.4-1.5,0.7-3,0.9-4.6
				C392.5,190.7,391.2,209.2,391.2,209.2z"/>
		</g>
	</g>
	<path class="st5" d="M393.8,231.8l-9.8-26.2c-0.1-0.3-0.2-0.5-0.3-0.8c-1.5-5.4,0.5-12.7,1.8-17.3c0.4-1.5,0.7-3,0.9-4.6
		c0.3-2.5,0.5-5.1,0.6-7.6c3.4-2.5,6,1.7,6,1.7s-0.9,3.3,1.5,18.1S400.3,228.5,393.8,231.8z"/>
	<path class="st9" d="M374.2,218.6c-14.7,6.1-59.3-23.1-60.4-23.3c0,0,35.6-6.3,40.9-7.5c0.2,0,0.4-0.1,0.6-0.2
		c0.2,0.2,1.8,1.4,4.1,3.4C367.9,197.9,385.5,213.9,374.2,218.6z"/>
	<g>
		<defs>
			<path id="SVGID_5_" d="M374.2,218.6c-14.7,6.1-59.3-23.1-60.4-23.3c0,0,35.6-6.3,40.9-7.5c0.2,0,0.4-0.1,0.6-0.2
				c0.2,0.2,1.8,1.4,4.1,3.4C367.9,197.9,385.5,213.9,374.2,218.6z"/>
		</defs>
		<clipPath id="SVGID_6_">
			<use xlink:href="#SVGID_5_"  style="overflow:visible;"/>
		</clipPath>
		<g class="st12">
			<path class="st11" d="M374.2,218.6c-14.7,6.1-59.3-23.1-60.4-23.3c0,0,35.6-6.3,40.9-7.5c1.6,1,3.2,2,4.8,3.1
				C367.9,197.9,385.5,213.9,374.2,218.6z"/>
		</g>
	</g>
	<path class="st5" d="M374.2,218.6c-14.7,6.1-59.3-23.1-60.4-23.3c0,0,35.6-6.3,40.9-7.5c0.2,0,0.4-0.1,0.6-0.2
		c0.2,0.2,1.8,1.4,4.1,3.4C367.9,197.9,385.5,213.9,374.2,218.6z"/>
	<path class="st9" d="M396.9,220.6c1.1,8.6-2.2,13.4-9,12.1l-0.8-0.2c-11.9-2.6-13.5-9.6-28.7-22c-5.3-4.3-10.5-7.8-14.9-10.9
		c-7-4.9-12.2-8.9-12.9-14c-1.1-8.3-11.3-20.3,7.8-27.5c14.3-5.4,38.8,22.3,49.5,39.9c1.9,3.1,3.6,6.3,5.1,9.6"/>
	<g>
		<defs>
			<path id="SVGID_7_" d="M396.9,220.6c1.1,8.6-2.2,13.4-9,12.1l-0.8-0.2c-11.9-2.6-13.5-9.6-28.7-22c-5.3-4.3-10.5-7.8-14.9-10.9
				c-7-4.9-12.2-8.9-12.9-14c-1.1-8.3-11.3-20.3,7.8-27.5c14.3-5.4,38.8,22.3,49.5,39.9c1.9,3.1,3.6,6.3,5.1,9.6"/>
		</defs>
		<clipPath id="SVGID_8_">
			<use xlink:href="#SVGID_7_"  style="overflow:visible;"/>
		</clipPath>
		<g class="st13">
			<path class="st11" d="M387.1,232.5c-11.9-2.6-13.5-9.6-28.7-22c-5.3-4.3-10.5-7.8-14.9-10.9l6.2-1.8l3.8,1.4
				c6.8,6.3,13,13.1,18.8,20.3C376.3,224.8,381.3,229.2,387.1,232.5z"/>
		</g>
	</g>
	<path class="st5" d="M396.9,220.6c1.1,8.6-2.2,13.4-9,12.1l-0.8-0.2c-11.9-2.6-13.5-9.6-28.7-22c-5.3-4.3-10.5-7.8-14.9-10.9
		c-7-4.9-12.2-8.9-12.9-14c-1.1-8.3-11.3-20.3,7.8-27.5c14.3-5.4,38.8,22.3,49.5,39.9c1.9,3.1,3.6,6.3,5.1,9.6"/>
	<path class="st1" d="M353.5,158.7c6.8,1.2,22,15.3,22.6,16.7s2.4,4.5,2.4,4.5h1.8c0,0-3.1,12.8-8.1,17.6s-25.9,5.5-27.9,4.8
		c-1.5-0.6-3-1.5-4.2-2.6l-15.2-4.4L353.5,158.7z"/>
	<path class="st9" d="M264.7,185.4c-1.6,3.3-9.4,5.9-10,7.4c-0.6,1.2-1.5,2.3-2.6,3c-0.7-0.8-0.7-2,0-2.8c1.3-1.4,1.4-4.5,1.4-4.5
		c-1.1-0.5-2.2-0.9-3.3-1.3c-0.4-0.1-1.2-0.2-2.1-0.4c-1.9-0.3-4.4-0.7-5-0.9c-0.8-0.3-1.4-0.7-2-1.3c-1.3,0.1-3.2-2.6-2.1-2.4
		c3.1,0.4,6.3,0.4,9.4,0c-8.1-2-7.4-4-7.4-4c2.6,1.3,9.8,1.8,9.8,1.8s-4.4-1.9-5.1-2.9c-0.3-0.5-0.4-1.1-0.1-1.6
		c2,1.1,4.2,2,6.4,2.6c3.9,0.8,7.9,0.8,11.9,0.1l0,0l0,0L264.7,185.4z"/>
	<g>
		<defs>
			<path id="SVGID_9_" d="M264.7,185.4c-1.6,3.3-9.4,5.9-10,7.4c-0.6,1.2-1.5,2.3-2.6,3c-0.7-0.8-0.7-2,0-2.8
				c1.3-1.4,1.4-4.5,1.4-4.5c-1.1-0.5-2.2-0.9-3.3-1.3c-0.4-0.1-1.2-0.2-2.1-0.4c-1.9-0.3-4.4-0.7-5-0.9c-0.8-0.3-1.4-0.7-2-1.3
				c-1.3,0.1-3.2-2.6-2.1-2.4c3.1,0.4,6.3,0.4,9.4,0c-8.1-2-7.4-4-7.4-4c2.6,1.3,9.8,1.8,9.8,1.8s-4.4-1.9-5.1-2.9
				c-0.3-0.5-0.4-1.1-0.1-1.6c2,1.1,4.2,2,6.4,2.6c3.9,0.8,7.9,0.8,11.9,0.1l0,0l0,0L264.7,185.4z"/>
		</defs>
		<clipPath id="SVGID_10_">
			<use xlink:href="#SVGID_9_"  style="overflow:visible;"/>
		</clipPath>
		<g class="st14">
			<path class="st11" d="M264.7,185.4c-1.6,3.3-9.4,5.9-10,7.4c-0.6,1.2-1.5,2.3-2.6,3c-0.7-0.8-0.7-2,0-2.8
				c1.3-1.4,1.4-4.5,1.4-4.5c-1.1-0.5-2.2-0.9-3.3-1.3c-0.4-0.1-1.2-0.2-2.1-0.4c3.9-0.1,8.8-0.3,10.1-1.2c0,0-2-3.8-1.6-6.9
				c0.1-1.1,0.6-2.1,1.5-2.8c1.2-0.9,3.3,0.3,5.6,2.3h0L264.7,185.4z"/>
		</g>
	</g>
	<path class="st5" d="M264.7,185.4c-1.6,3.3-9.4,5.9-10,7.4c-0.6,1.2-1.5,2.3-2.6,3c-0.7-0.8-0.7-2,0-2.8c1.3-1.4,1.4-4.5,1.4-4.5
		c-1.1-0.5-2.2-0.9-3.3-1.3c-0.4-0.1-1.2-0.2-2.1-0.4c-1.9-0.3-4.4-0.7-5-0.9c-0.8-0.3-1.4-0.7-2-1.3c-1.3,0.1-3.2-2.6-2.1-2.4
		c3.1,0.4,6.3,0.4,9.4,0c-8.1-2-7.4-4-7.4-4c2.6,1.3,9.8,1.8,9.8,1.8s-4.4-1.9-5.1-2.9c-0.3-0.5-0.4-1.1-0.1-1.6
		c2,1.1,4.2,2,6.4,2.6c3.9,0.8,7.9,0.8,11.9,0.1l0,0l0,0L264.7,185.4z"/>
	<path class="st5" d="M241.2,184.6c0,0-0.9-0.1,3-0.3c1.7,0,3.4-0.1,5.1-0.4"/>
	<path class="st15" d="M416.6,139.1c1.9-0.4,7.6-4.4,9.7-6.9c1.4-1.8,2.6-3.8,3.6-5.8c0.5,0.3,0.8,0.8,0.8,1.4
		c0,1.3-2.5,5.3-2.5,5.3s5.7-4.5,7-7.1c0,0,1.8,1.2-3.7,7.6c2.8-1.5,5.4-3.3,7.7-5.4c0.9-0.8,0.8,2.5-0.3,3.1
		c-0.1,0.8-0.4,1.5-0.9,2.2c-0.6,0.8-4.3,4.3-5.1,5.2c-0.7,1-1.4,2-2,3c0,0,1.9,2.4,3.7,2.9c1,0.2,1.8,1.2,1.6,2.2
		c-1.3,0-2.7-0.3-3.9-0.9c-1.3-1-9.2,1.4-12.4-0.3"/>
	<path class="st9" d="M422.3,145.4c0,0-25.3,13.3-30.8,13.3c-7.4,0-29.2,12.9-29.2,12.9l-8.8-21.2c0,0,19.1-3.1,24.4-2.9
		c5.9,0.2,10.3-5.3,20-6.2c13.2-1.3,20.9-2.4,20.9-2.4"/>
	<g>
		<defs>
			<path id="SVGID_11_" d="M422.3,145.4c0,0-25.3,13.3-30.8,13.3c-7.4,0-29.2,12.9-29.2,12.9l-8.8-21.2c0,0,19.1-3.1,24.4-2.9
				c5.9,0.2,10.3-5.3,20-6.2c13.2-1.3,20.9-2.4,20.9-2.4"/>
		</defs>
		<clipPath id="SVGID_12_">
			<use xlink:href="#SVGID_11_"  style="overflow:visible;"/>
		</clipPath>
		<g class="st16">
			<path class="st11" d="M422.3,145.4c0,0-25.3,13.3-30.8,13.3c-7.4,0-29.2,12.9-29.2,12.9l-8.8-21.2c0,0,6.7-1.1,13.2-1.9
				c3.9,2.9,6.9,7,8.4,11.6c0,0,10-3.8,11.6-4.9s0-5.1,0-5.1c1.5-0.3,3.1-0.3,4.6,0c2.6,0.4,0.8,4.6,0.8,4.6
				C402.5,152.7,412.6,149.5,422.3,145.4L422.3,145.4z"/>
		</g>
	</g>
	<path class="st5" d="M422.3,145.4c0,0-25.3,13.3-30.8,13.3c-7.4,0-29.2,12.9-29.2,12.9l-8.8-21.2c0,0,19.1-3.1,24.4-2.9
		c5.9,0.2,10.3-5.3,20-6.2c13.2-1.3,20.9-2.4,20.9-2.4"/>
	<path class="st6" d="M368.2,171.6l-3,1.2l-12.8,5c0,0-5.1,10.8-9.7,15.8s-21.7,7.4-30.5,5.7s-22.2,5.5-28.4,0s-21.3-12.3-27.2-21.5
		c-1.8-2.8-1.2-5.8,0.5-8.5c4-6.3,13.7-11.5,13.7-11.5c12.6-5.6,26.1-9.1,39.9-10.4c10.6-0.9,21.3-0.2,31.7,2
		c3.4,0.7,5.4,1.1,5.8,0.7c1.8-1.6,5.2-1.1,5.8-1h0.1c0,0-0.4-2.5,1.3-3c1.1-0.3,3.2,0.2,7,3C372,156.1,368.2,171.6,368.2,171.6z"/>
	<g>
		<defs>
			<path id="SVGID_13_" d="M368.2,171.6l-3,1.2l-12.8,5c0,0-5.1,10.8-9.7,15.8s-21.7,7.4-30.5,5.7s-22.2,5.5-28.4,0
				s-21.3-12.3-27.2-21.5c-1.8-2.8-1.2-5.8,0.5-8.5c4-6.3,13.7-11.5,13.7-11.5c12.6-5.6,26.1-9.1,39.9-10.4
				c10.6-0.9,21.3-0.2,31.7,2c3.4,0.7,5.4,1.1,5.8,0.7c1.8-1.6,5.2-1.1,5.8-1h0.1c0,0-0.4-2.5,1.3-3c1.1-0.3,3.2,0.2,7,3
				C372,156.1,368.2,171.6,368.2,171.6z"/>
		</defs>
		<clipPath id="SVGID_14_">
			<use xlink:href="#SVGID_13_"  style="overflow:visible;"/>
		</clipPath>
		<g class="st17">
			<path class="st8" d="M365.2,172.7l-12.8,5c0,0-5.1,10.8-9.7,15.8s-21.7,7.4-30.5,5.7s-22.2,5.5-28.4,0s-21.3-12.3-27.2-21.5
				c-1.8-2.8-1.2-5.8,0.5-8.5l0,0c0,0-0.5,11.3,8.7,15.1s10,3.6,10,3.6s8.7,9.4,11.5,10.7s21.5-4.3,23.2-3.5s7.9,5.6,18.1,2.3
				s19.9-12.5,19.8-18.6c-0.1-3.5,0-7.1,0.4-10.6c0,0,4,4,6.2,4.4c0,0,3.9-5.6,4.5-7.9c0,0,2.1,1.1,0.6,6.8s4.9-5.2,4.9-9.7
				C365,158.6,367,165,365.2,172.7z"/>
			<path class="st8" d="M342.4,149.3c-1.6,2.5-6,6.1-18.3,6.4c-18.9,0.5-20-4.4-20-4.4l6.6-4.1C321.3,146.4,332,147.1,342.4,149.3z"
				/>
			<path class="st8" d="M354,149.1h0.1c0,0-0.4-2.5,1.3-3c2.5,1.5,5.6,3.8,5.6,6.3C358.8,151.1,356.4,150,354,149.1z"/>
		</g>
	</g>
	<path class="st5" d="M368.2,171.6l-3,1.2l-12.8,5c0,0-5.1,10.8-9.7,15.8s-21.7,7.4-30.5,5.7s-22.2,5.5-28.4,0s-21.3-12.3-27.2-21.5
		c-1.8-2.8-1.2-5.8,0.5-8.5c4-6.3,13.7-11.5,13.7-11.5c12.6-5.6,26.1-9.1,39.9-10.4c10.6-0.9,21.3-0.2,31.7,2
		c3.4,0.7,5.4,1.1,5.8,0.7c1.8-1.6,5.2-1.1,5.8-1h0.1c0,0-0.4-2.5,1.3-3c1.1-0.3,3.2,0.2,7,3C372,156.1,368.2,171.6,368.2,171.6z"/>
	<path class="st15" d="M323.1,181.2c-0.8,0.7-1.7,1.3-2.6,1.9c-1.6,1-3.3,1.9-5,2.5c-8.9,3.3-24.7,2.2-34.7-2.3c-1-0.4-2-1-2.9-1.5
		c-1.3-0.8-2.5-1.7-3.5-2.7c-7.7-7.9-4.4-14.4,0-17.4c1.2-0.8,2.5-1.5,3.8-2.1c1-0.5,2.2-1,3.4-1.4c11.1-4.1,27.7-6,39.1-4.7
		c1.3,0.1,2.5,0.3,3.6,0.6c4.4,0.9,7.6,2.4,8.6,4.7C335.9,165.8,330.7,175.2,323.1,181.2z"/>
	<path class="st1" d="M323.1,181.2c-0.8,0.7-1.7,1.3-2.6,1.9c-3.6-9.6-3.6-20.1,0-29.7c1.3,0.1,2.5,0.3,3.6,0.6
		C319,164.1,321.5,176,323.1,181.2z"/>
	<path class="st1" d="M280.7,183.3c-1-0.4-2-1-2.9-1.5c-0.6-7.4-0.5-14.9,0.2-22.3c1-0.5,2.2-1,3.4-1.4
		C278.9,167.8,279.9,178.3,280.7,183.3z"/>
	<path class="st5" d="M438.9,131.3c0,0,0.6-0.6-2.6,1.5c-1.4,1-2.8,1.8-4.3,2.6"/>
	<path class="st5" d="M354.2,149.1c4.7,0.9,8.6,4.4,10,9c2.5,7.9,1.3,10.2,1.3,10.2"/>
	<path class="st5" d="M348.2,150.1c0,0-2.7,6.3-2.4,10.9s3.9,10.3,3.9,10.3"/>
	<path class="st5" d="M334.7,170.3c0,0-11.5,23-31.5,20.7"/>
	<path class="st5" d="M268,171.3c0,0-0.9,11,16.8,17.4"/>
	<path class="st5" d="M352.4,177.7c0,0,8.6-12.2,7.6-17.1"/>
	<g class="st18">
		<path class="st19" d="M377.8,180.7c0,0-6.2,14.5-12.8,14.4"/>
		<path class="st19" d="M363.3,176.2c0,0,2.1,14.3-4.8,19.5"/>
	</g>
	<path class="st15" d="M296.4,177.7c-1.9-4.1-6.5-5.8-10.8-6.4c-3.2-0.5-6.5-0.5-9.7-0.1l0.4-0.8l7.5-15.7c0,0,19.7-5.3,23.6,4"/>
	<path class="st1" d="M285.6,171.3c-3.2-0.5-6.5-0.5-9.7-0.1l0.4-0.8c1.7-1.9,4.8-3.7,9.8-5C286.7,167.3,286.5,169.4,285.6,171.3z"
		/>
	<path class="st1" d="M258.2,145.6c0,0-2.1,5.6-9.8,0.4s-2.5-8.8-2.5-8.8s-2.5,3.1,4.1,5.8c0,0-5-2-3-8.7S258.2,145.6,258.2,145.6z"
		/>
	<path class="st15" d="M287.3,164.4c-0.8,4.9-10.1,12.5-16.9,11.7c-3.1-0.4-15.5-8.8-15.1-20.5c0.3-8.4-6.5-16.6-1.5-29.6
		c6.2-15.9,28.3-22.9,41.4-8.5c7.5,8.2,5,26.4-2.2,40.4"/>
	<path class="st5" d="M268,140.6c0,0,5.8-2.2,9.3,1.9"/>
	<path class="st1" d="M272,150.1c0,1.1-0.5,2-1.2,2s-1.1-0.9-1.1-2s0.5-2,1.2-2S272,149,272,150.1z"/>
	<path class="st1" d="M259.4,149.1c0,1.1-0.5,2-1.2,2s-1.1-0.9-1.1-2s0.5-2,1.2-2S259.4,148,259.4,149.1z"/>
	<path class="st5" d="M258.3,141.2c0,0-4.1-3-5.7,0.3"/>
	<path class="st5" d="M262.2,150.4c-0.2,1.5-4.2,5-2.8,6.5c0.8,0.9,1.8,1.5,2.9,1.8"/>
	<path class="st5" d="M261,162.4c4.1,0.7,8.2,0.4,12.2-0.8"/>
	<path class="st5" d="M273.2,161.6c0,0-1.7,5.5-5.8,5.4s-4.7-4.4-4.7-4.4"/>
	<path class="st1" d="M281.8,135.1c0,0,2.4,9.1,6.3,11.6c2.3,1.4,4.1,3.6,5.1,6.1l1.2,6.3c0,0,9.5,6.4,14.7,2s8.2-3.8,8.2-3.8
		s-0.4-2.4-5-1.6c0,0,10,1,8.5-8S286.9,121.5,281.8,135.1z"/>
	<path class="st1" d="M270.8,127.7c0,0-5.4-1.1-11.7,6.3c-4.1,4.8-10.1,4.3-13.5,0.8s-3.1-14.3-7.9-14.7c0,0,4.9-2.6,8.4,1.2
		c0,0,2.3-2.3-0.2-5.3s1.2-11,9.5-9.6c0,0-4.1,1-1.2,3.3c0,0,5.4-6.4,12.1-5.8s23.7-7.2,28,6.4c0,0,6.4-2.7,10.2-0.7
		s6.6,12.9,10.7,15.5s9.1-2.2,12.5-1.3s6.1,4.3,6.1,4.3s-3.3-1.3-5.6,0.3c0,0,6.8,4.9,10,2c0,0-1.5,14.7-14.3,16.3
		c0,0,5.3,2.3,12.9,0c-5.7,4.1-12.3,6.7-19.3,7.7c-11,1.4-8.7-6.1-26.4-9.3c-5.5-1-5.6-9-5.6-9c-0.5,2.1-0.6,4.2-0.4,6.3
		c0.3,3.5,3.3,6.6,5.8,6.6c0,0-7.1,1.3-10.2-2.9c-5.3-7.2-2.5-16.8-2.5-16.8s-5.5-2.8-12.2,4.4c-5.4,5.8-9.6,3.9-9.6,3.9
		c2.2-0.3,4.3-1.3,5.8-3C264.5,132.2,267.1,127.7,270.8,127.7z"/>
	<path class="st15" d="M288.8,150.4c0,0,4-7,7.1-4.1s3.4,4.8,2.5,6.6c-1.1,2.2-2.5,4.4-4.1,6.3c-0.9,1.1-2.6,1.3-3.7,0.3
		c-0.1-0.1-0.2-0.2-0.3-0.3"/>
	<g class="st18">
		<path class="st19" d="M280.6,124.3c0,0,0.7-6.8-6.5-6.2c-8.6,0.8-13.9,14.6-21.6,14.7c-7,0.1-4.1-9-4.1-9"/>
		<path class="st19" d="M284.8,124.4c0,0-4.2,2.4-3.1,8.5s6.5,12.2,15.3,10.1s12.1-2.8,16.8,2s16.2,0.6,13.8-5.1"/>
		<path class="st19" d="M286.7,120.4c0,0,3.8,14.6,16.1,13.1s20.5-9.9,25.2-7.1"/>
		<path class="st19" d="M289.8,116.2c0,0,0.9-4.4,7.1,0.6s9.2,8.6,13.5,6.2"/>
		<path class="st19" d="M286,118c0,0,3.3-3.1-0.8-7.1s-16.2,4.6-25.3,4.2s-1.6-6.6-1.6-6.6"/>
		<path class="st19" d="M289.8,111.2c0,0,1.8-6.2-6.2-7.8"/>
	</g>
</g>
<g id="freepik--character-2--inject-4">
	<path class="st1" d="M238.6,268.2c2.2-1.8,5-2.5,7.7-2c2.2,0.2,3.9,2.1,3.7,4.3c0,0.3-0.1,0.6-0.2,0.9c0,0,8.4,7.1,14.9,21
		s10.9,38.7,10.9,38.7l-102.1-5c0,0,15.9-25.4,19.2-30.1s10-10.6,10-10.6c0.7-1.9,2.4-3.3,4.4-3.6c3.6-0.8,6.4-0.4,7.1,0.8
		c0.4,0.9,0.4,1.9,0,2.8c0,0,0.3,19.5,2.1,19.8s22.2-1.7,22.2-1.7s2.3-10.6,2.9-12.6l-1.4-16.3C240,274.5,235.5,269.9,238.6,268.2z"
		/>
	<path class="st5" d="M238,269.7c0,0-2.8-4.3-2.1-5.4s6.9-2.9,8.5-2.5s3.4,7.2,1.7,7.9S238,269.7,238,269.7z"/>
	<path class="st5" d="M213.2,283.4c0,0,2.3-3.5,1.8-4.4s-5.6-2.4-7-2s-2.8,5.9-1.4,6.4S213.2,283.4,213.2,283.4z"/>
	<path class="st20" d="M244.3,288.9c0,0,2.4-8.5,6.5-8.6"/>
	<path class="st20" d="M250.8,286.3c0,0,9.1,2.1,12,9.6"/>
	<path class="st20" d="M194.1,298.5c0,0,7.3-7.5,14.9-6.2"/>
	<path class="st20" d="M206.6,283.4c0,0,4.4-1.6,6.1,2.9"/>
	<path class="st20" d="M241.2,271.2c0,0,2.8-3.8,6.4-1.2"/>
	<path class="st9" d="M393.1,409.8l-8,12c0.2,0.6,0.5,1.3,0.8,1.9c1.1,2.2,3.3,5.9,6.8,7.5c4.9,2.3,6.1,5.1,8.9,4.2
		c0.2-0.1,0.5-0.2,0.7-0.3c3.3-1.6,0.8-4.2,1.9-6.3s5.9-2.7,7.7-4.4s0.7-4,1.6-6.2s-1.4-4.2-2.7-4.7s-1.1-4.5-3.8-4
		s-3.1-1.9-3.7-2.4S394.4,409.1,393.1,409.8z"/>
	<g>
		<defs>
			<path id="SVGID_15_" d="M393.1,409.8l-8,12c0.2,0.6,0.5,1.3,0.8,1.9c1.1,2.2,3.3,5.9,6.8,7.5c4.9,2.3,6.1,5.1,8.9,4.2
				c0.2-0.1,0.5-0.2,0.7-0.3c3.3-1.6,0.8-4.2,1.9-6.3s5.9-2.7,7.7-4.4s0.7-4,1.6-6.2s-1.4-4.2-2.7-4.7s-1.1-4.5-3.8-4
				s-3.1-1.9-3.7-2.4S394.4,409.1,393.1,409.8z"/>
		</defs>
		<clipPath id="SVGID_16_">
			<use xlink:href="#SVGID_15_"  style="overflow:visible;"/>
		</clipPath>
		<g class="st21">
			<path class="st22" d="M385.9,423.8c1.1,2.2,3.3,5.9,6.8,7.5c4.9,2.3,6.1,5.1,8.9,4.2c-2.4-1.5-4.4-3.7-4.9-5.3
				C395.8,428,390.4,425.1,385.9,423.8z"/>
		</g>
	</g>
	<path class="st5" d="M393.1,409.8l-8,12c0.2,0.6,0.5,1.3,0.8,1.9c1.1,2.2,3.3,5.9,6.8,7.5c4.9,2.3,6.1,5.1,8.9,4.2
		c0.2-0.1,0.5-0.2,0.7-0.3c3.3-1.6,0.8-4.2,1.9-6.3s5.9-2.7,7.7-4.4s0.7-4,1.6-6.2s-1.4-4.2-2.7-4.7s-1.1-4.5-3.8-4
		s-3.1-1.9-3.7-2.4S394.4,409.1,393.1,409.8z"/>
	<path class="st9" d="M396,411.3l-21.5-10.5c-5.4-2.6-16.7-7.8-22.4-10.6c-1.6-0.9-3.4-1.4-5.3-1.6c-2.2-0.1-3.7,0.5-5.3,0.3
		c-2.6-0.3-22.2-1-22.2-1l-3.4,12.4l-6.9,25.1l7.2-2.4l27.6-9.3c0,0,10.6,4.7,21.2,4.6c8.4-0.1,18.7,4.4,22.6,6.3
		c1,0.5,1.6,0.8,1.6,0.8"/>
	<g>
		<defs>
			<path id="SVGID_17_" d="M396,411.3l-21.5-10.5c-5.4-2.6-16.7-7.8-22.4-10.6c-1.6-0.9-3.4-1.4-5.3-1.6c-2.2-0.1-3.7,0.5-5.3,0.3
				c-2.6-0.3-22.2-1-22.2-1l-3.4,12.4l-6.9,25.1l7.2-2.4l27.6-9.3c0,0,10.6,4.7,21.2,4.6c8.4-0.1,18.7,4.4,22.6,6.3
				c1,0.5,1.6,0.8,1.6,0.8"/>
		</defs>
		<clipPath id="SVGID_18_">
			<use xlink:href="#SVGID_17_"  style="overflow:visible;"/>
		</clipPath>
		<g class="st23">
			<path class="st22" d="M319.4,387.9l-3.4,12.4l0.4,22.7l27.6-9.3c0,0,10.6,4.7,21.2,4.6c8.4-0.1,18.7,4.4,22.6,6.3
				c-6.5-4.9-17.9-9.1-22.6-9.3c-7.2-0.2-15.6-7.3-15.6-7.3c-3.5,3.9-9.8,3.6-9.8,3.6c8.7-9.9,8.4-18.3,6.9-23.1
				c-2.2-0.1-3.7,0.5-5.3,0.3C338.9,388.5,319.4,387.9,319.4,387.9z"/>
		</g>
	</g>
	<path class="st5" d="M396,411.3l-21.5-10.5c-5.4-2.6-16.7-7.8-22.4-10.6c-1.6-0.9-3.4-1.4-5.3-1.6c-2.2-0.1-3.7,0.5-5.3,0.3
		c-2.6-0.3-22.2-1-22.2-1l-3.4,12.4l-6.9,25.1l7.2-2.4l27.6-9.3c0,0,10.6,4.7,21.2,4.6c8.4-0.1,18.7,4.4,22.6,6.3
		c1,0.5,1.6,0.8,1.6,0.8"/>
	<path class="st9" d="M70,312.9v14.5c-0.5,0.4-1.1,0.8-1.7,1.1c-2.1,1.3-6,3.1-9.8,2.5c-5.3-0.8-7.9,0.8-9.7-1.5
		c-0.2-0.2-0.3-0.4-0.4-0.6c-1.9-3.2,1.7-4,1.9-6.3s-3.4-5.5-4-7.9s1.6-3.7,2-6s3.5-2.7,4.8-2.4s3.4-3.2,5.3-1.2s3.6,0.2,4.4,0
		S69.2,311.6,70,312.9z"/>
	<g>
		<defs>
			<path id="SVGID_19_" d="M70,312.9v14.5c-0.5,0.4-1.1,0.8-1.7,1.1c-2.1,1.3-6,3.1-9.8,2.5c-5.3-0.8-7.9,0.8-9.7-1.5
				c-0.2-0.2-0.3-0.4-0.4-0.6c-1.9-3.2,1.7-4,1.9-6.3s-3.4-5.5-4-7.9s1.6-3.7,2-6s3.5-2.7,4.8-2.4s3.4-3.2,5.3-1.2s3.6,0.2,4.4,0
				S69.2,311.6,70,312.9z"/>
		</defs>
		<clipPath id="SVGID_20_">
			<use xlink:href="#SVGID_19_"  style="overflow:visible;"/>
		</clipPath>
		<g class="st24">
			<path class="st22" d="M68.3,328.5c-2.1,1.3-6,3.1-9.8,2.5c-5.3-0.8-7.9,0.8-9.7-1.5c2.8,0,5.7-0.6,7-1.7
				C57.7,326.5,63.8,327.1,68.3,328.5z"/>
		</g>
	</g>
	<path class="st5" d="M70,312.9v14.5c-0.5,0.4-1.1,0.8-1.7,1.1c-2.1,1.3-6,3.1-9.8,2.5c-5.3-0.8-7.9,0.8-9.7-1.5
		c-0.2-0.2-0.3-0.4-0.4-0.6c-1.9-3.2,1.7-4,1.9-6.3s-3.4-5.5-4-7.9s1.6-3.7,2-6s3.5-2.7,4.8-2.4s3.4-3.2,5.3-1.2s3.6,0.2,4.4,0
		S69.2,311.6,70,312.9z"/>
	<path class="st9" d="M66.7,312.5l23.7,3.2c5.9,0.8,18.2,2.8,24.5,3.6c1.9,0.2,3.7,0.7,5.3,1.6c1.9,1.1,2.8,2.4,4.3,3.1
		c2.4,1.2,19,11.5,19,11.5l-4.1,12.2l-8.2,24.7l-4.7-6l-17.9-23c0,0-11.5-2-20.2-7.9c-6.9-4.7-18-6.7-22.3-7.3
		c-1.1-0.2-1.8-0.2-1.8-0.2"/>
	<g>
		<defs>
			<path id="SVGID_21_" d="M66.7,312.5l23.7,3.2c5.9,0.8,18.2,2.8,24.5,3.6c1.9,0.2,3.7,0.7,5.3,1.6c1.9,1.1,2.8,2.4,4.3,3.1
				c2.4,1.2,19,11.5,19,11.5l-4.1,12.2l-8.2,24.7l-4.7-6l-17.9-23c0,0-11.5-2-20.2-7.9c-6.9-4.7-18-6.7-22.3-7.3
				c-1.1-0.2-1.8-0.2-1.8-0.2"/>
		</defs>
		<clipPath id="SVGID_22_">
			<use xlink:href="#SVGID_21_"  style="overflow:visible;"/>
		</clipPath>
		<g class="st25">
			<path class="st22" d="M143.5,335.4l-4.1,12.2l-12.9,18.8l-17.9-23c0,0-11.5-2-20.2-7.9c-6.9-4.7-18-6.7-22.3-7.3
				c8.1-0.5,20,2.3,23.9,4.8c6.1,3.8,17,2.5,17,2.5c0.8,5.1,6.1,8.4,6.1,8.4c-1.8-13.1,3.2-19.9,7-23c1.9,1.1,2.8,2.4,4.3,3.1
				C126.8,325.1,143.5,335.4,143.5,335.4z"/>
		</g>
	</g>
	<path class="st5" d="M66.7,312.5l23.7,3.2c5.9,0.8,18.2,2.8,24.5,3.6c1.9,0.2,3.7,0.7,5.3,1.6c1.9,1.1,2.8,2.4,4.3,3.1
		c2.4,1.2,19,11.5,19,11.5l-4.1,12.2l-8.2,24.7l-4.7-6l-17.9-23c0,0-11.5-2-20.2-7.9c-6.9-4.7-18-6.7-22.3-7.3
		c-1.1-0.2-1.8-0.2-1.8-0.2"/>
	<path class="st26" d="M159.9,337.6l-7.9,60l-0.4,2.9c0,0-19.7-15.7-32-35.9c-0.7-1.1-1.3-2.2-1.8-3.3c-9-18.4,4.4-30.6,16.4-34.3
		c12.6-3.9,7.5,4,7.5,4C150.8,329.8,159.9,337.6,159.9,337.6z"/>
	<g>
		<defs>
			<path id="SVGID_23_" d="M159.9,337.6l-7.9,60l-0.4,2.9c0,0-19.7-15.7-32-35.9c-0.7-1.1-1.3-2.2-1.8-3.3
				c-9-18.4,4.4-30.6,16.4-34.3c12.6-3.9,7.5,4,7.5,4C150.8,329.8,159.9,337.6,159.9,337.6z"/>
		</defs>
		<clipPath id="SVGID_24_">
			<use xlink:href="#SVGID_23_"  style="overflow:visible;"/>
		</clipPath>
		<g class="st27">
			<path class="st8" d="M152.1,397.6l-0.4,2.9c0,0-19.7-15.7-32-35.9c-0.7-1.1-1.3-2.2-1.8-3.3c-0.9-4.9-1.4-9.4-0.7-11
				c2.1-4.5,8.7-6.5,8.7-6.5s2.5,28.6,8.7,37.1c4.3,5.7,9.2,10.8,14.6,15.4L152.1,397.6z"/>
		</g>
	</g>
	<path class="st5" d="M159.9,337.6l-7.9,60l-0.4,2.9c0,0-19.7-15.7-32-35.9c-0.7-1.1-1.3-2.2-1.8-3.3c-9-18.4,4.4-30.6,16.4-34.3
		c12.6-3.9,7.5,4,7.5,4C150.8,329.8,159.9,337.6,159.9,337.6z"/>
	<path class="st26" d="M336.9,415.5c-3.6,3.1-7.8,5.4-12.3,6.9c-15.9,5.4-54.9,9.6-54.9,9.6l2.2-4.3l26.4-50.6
		c0,0,31.6,2.8,37.9,8.9c0,0-0.8-9.3,6.3,4.2C347.4,399.6,344.5,408.9,336.9,415.5z"/>
	<g>
		<defs>
			<path id="SVGID_25_" d="M336.9,415.5c-3.6,3.1-7.8,5.4-12.3,6.9c-15.9,5.4-54.9,9.6-54.9,9.6l2.2-4.3l26.4-50.6
				c0,0,31.6,2.8,37.9,8.9c0,0-0.8-9.3,6.3,4.2C347.4,399.6,344.5,408.9,336.9,415.5z"/>
		</defs>
		<clipPath id="SVGID_26_">
			<use xlink:href="#SVGID_25_"  style="overflow:visible;"/>
		</clipPath>
		<g class="st28">
			<path class="st8" d="M336.9,415.5c-3.6,3.1-7.8,5.4-12.3,6.9c-15.9,5.4-54.9,9.6-54.9,9.6l2.2-4.3c13.6-2.2,33.5-6.5,38.4-10.8
				c7-6,5,0.6,5,0.6s12.4-9.8,15.3-17.1s5.3-8.4,6.2-3.5c1.2,6.6-0.6,13.4-4.8,18.5C329.5,418.4,332.7,417.9,336.9,415.5z"/>
		</g>
	</g>
	<path class="st5" d="M336.9,415.5c-3.6,3.1-7.8,5.4-12.3,6.9c-15.9,5.4-54.9,9.6-54.9,9.6l2.2-4.3l26.4-50.6c0,0,31.6,2.8,37.9,8.9
		c0,0-0.8-9.3,6.3,4.2C347.4,399.6,344.5,408.9,336.9,415.5z"/>
	<path class="st26" d="M136.1,377.1c-9-19.8,18.7-42.9,18.7-42.9l11.1-1.8c1.1-18.7,39.9-35.1,52.8-36.4c20.6-2,61.7,25.7,71.7,40.1
		s6.1,32,6.1,32s24.3,19.6,25.8,32.5s-41,42.1-88,28.5S156.9,422.5,136.1,377.1z"/>
	<g>
		<defs>
			<path id="SVGID_27_" d="M136.9,379.7c-9-19.8,18.7-42.9,18.7-42.9l11.1-1.8c1.1-18.7,39.9-35.1,52.8-36.4
				c20.6-2,61.7,25.7,71.7,40.1s6.1,32,6.1,32s24.3,19.6,25.8,32.5s-41,42.1-88,28.5S157.7,425.1,136.9,379.7z"/>
		</defs>
		<clipPath id="SVGID_28_">
			<use xlink:href="#SVGID_27_"  style="overflow:visible;"/>
		</clipPath>
		<g class="st29">
			<path class="st8" d="M233,320.9c-25.9-5.1-52.1,13.4-52.1,13.4c-4.1-0.1-11.6,0.5-15.9,0.8l1.8-0.3c0.4-6.6,5.5-12.9,12.4-18.3
				c13.8-5.5,31.7-10.6,33.2-9.6c2,1.4-12.7,8.9-16.6,10.8c19-9.1,32.7-3.6,37.3-0.8S233,320.9,233,320.9z"/>
			<path class="st8" d="M297.3,370.6c-2.7-2.2-6.6-5.1-9.9-6.4c0,0-3.4-14.4-31.9-29.8c0,0-3.3-3.9-2.7-5.7
				c1.2-4.4,24.5,7.8,25.1,8.1c-0.4-0.4-8.1-8.1-2.5-8.5c4-0.2,14,9.7,20.3,18.9l0,0C298.2,354.8,298.7,362.8,297.3,370.6z"/>
			<path class="st8" d="M215.8,338c0,0,27.6,4.1,49.6,15.2c0,0-16.6-16.3-29.4-19.5s-24-2.9-24.7-0.1S215.8,338,215.8,338z"/>
			<path class="st8" d="M260.3,431.8c6.1,0,39.8-5.5,49.4-11.3c-16,10.9-44.3,19.9-74.5,11.1c-40.7-11.8-69.1-8-89.5-36.5
				c2.5,2.4,4.3,3.9,4.3,3.9l24.3,10.5c0,0-14.1-26.1,12.5-23.2s50.7,37.9,50.7,37.9s11.8-0.9,10,1.6s-6.7,3.3-6.7,3.3
				S253.8,431.8,260.3,431.8z"/>
			<path class="st8" d="M313.4,417.8c-0.7,0.6-1.5,1.1-2.3,1.7C311.9,418.9,312.6,418.3,313.4,417.8z"/>
		</g>
	</g>
	<path class="st5" d="M136.1,377.1c-9-19.8,18.7-42.9,18.7-42.9l11.1-1.8c1.1-18.7,39.9-35.1,52.8-36.4c20.6-2,61.7,25.7,71.7,40.1
		s6.1,32,6.1,32s24.3,19.6,25.8,32.5s-41,42.1-88,28.5S156.9,422.5,136.1,377.1z"/>
	<path class="st5" d="M221.6,425.7c0,0,19.1,3.1,27.3-4.2"/>
	<path class="st5" d="M296.5,368.1c0,0-7.9-7.7-22.1-10.5"/>
	<path class="st5" d="M253.6,315.7c7.7,4.5,15.1,9.6,22,15.3"/>
	<path class="st5" d="M189.6,318.3C208,307,232,300,250.1,313.8"/>
	<path class="st5" d="M181,323.4c1.7-1,3.3-2,5-3"/>
	<path class="st5" d="M262.8,336.5c11.1,6.9,22.9,15.7,28.6,27.8"/>
	<path class="st5" d="M250.8,329.8c3,1.4,5.9,3,8.7,4.7"/>
	<path class="st5" d="M289.7,341.2c0,0,6.8,12.7,6.8,26.9"/>
	<path class="st5" d="M192.3,333.2c2.7,0.6,5.4,1.3,8,2.2"/>
	<path class="st5" d="M154.9,334.2c10.8-2.6,21.9-3.2,32.9-1.7"/>
	<path class="st5" d="M208.1,319c-10.1,2.4-19.6,6.8-28.1,12.9"/>
	<path class="st5" d="M235.9,319.4c-7.4-2.7-16.1-2.5-23.8-1.2"/>
	<path class="st5" d="M333.5,403.5c-6.9,11.6-18.2,19.7-30.9,23.9"/>
	<path class="st5" d="M338,393.4c-0.7,2.5-1.6,4.8-2.8,7.1"/>
	<path class="st5" d="M307.6,378.1c0,0,14.5,2.5,19.3,11"/>
	<path class="st5" d="M141.7,331c0,0-10.5-0.9-14.2,6.4"/>
	<path class="st5" d="M128.3,355.2c-0.7,15.9,6.5,30.4,18.9,40.3"/>
	<path class="st5" d="M130.1,344c-0.8,2.5-1.3,5.1-1.6,7.8"/>
	<path class="st5" d="M252,389.4c-10-13.4-28-17.4-44-17"/>
	<path class="st5" d="M258.6,400.6c-1.1-2.9-2.6-5.7-4.4-8.3"/>
	<path class="st15" d="M223,423.8c-6.3-0.3-12.6-1.2-18.8-2.7c-1.7-0.4-3.4-0.8-4.9-1.3c-37.5-10.8-28.5-32.3-17.1-38.8
		c19.1-10.7,46.4-0.5,60.8,13.1C258.2,408.4,251,424.8,223,423.8z"/>
	<path class="st1" d="M223,423.8c-6.3-0.3-12.6-1.2-18.8-2.7c-1.7-0.4-3.4-0.8-4.9-1.3c2.8-4.6,6.1-8.9,9.7-12.9
		C209.7,407.4,224.5,413.8,223,423.8z"/>
	<path class="st15" d="M221.6,414.3c0,7.9-12,24.1-31.8,24c-11-0.1-21.8-17.7-22.8-41.9c-0.8-19-9.8-40.8,13.6-56.7
		c23.6-16,55.2-3.5,55.2,31.5c0,11.4-1.1,21.7-3.9,30.8"/>
	<path class="st5" d="M188.8,382.5c0,0,10.4-3.1,17.2,3.1"/>
	<path class="st5" d="M175.1,381.7c0,0-4.4-4-9.8-2.1"/>
	<path class="st1" d="M197.3,395.5c0,1.9-0.9,3.4-1.9,3.4s-1.9-1.5-1.9-3.4s0.9-3.4,1.9-3.4S197.3,393.6,197.3,395.5z"/>
	<path class="st1" d="M174.2,393.4c0,1.9-0.9,3.4-2,3.3s-1.9-1.5-1.9-3.4s0.9-3.4,2-3.4S174.2,391.5,174.2,393.4z"/>
	<path class="st5" d="M177.1,385.6c0.2,3.7,0.2,7.4,0,11.1c-0.7,6.5-3.7,11-2.6,12.4c1.5,1.9,8.7,2.6,8.7,2.6"/>
	<path class="st5" d="M178.7,416.6c0,0,13.1,2.6,23.3-1.3c0,0,2.3,3.2-4,6.5s-16.1,3.4-16.7-4"/>
	<path class="st30" d="M206,371.1c0,0,4.6,12.9,10.1,17.5l2,6.8c0,0,4.2-7.1,9.1-3.6s3.2,14.9,3.2,14.9s15-7.1,15.3-15.3
		c0.1-4.7,1.2-9.3,3.2-13.6c0,0-3.3,1.3-4.6,3.7c0,0,7.1-15.4,2.6-19.3S206,371.1,206,371.1z"/>
	<g>
		<defs>
			<path id="SVGID_29_" d="M206,371.1c0,0,4.6,12.9,10.1,17.5l2,6.8c0,0,4.2-7.1,9.1-3.6s3.2,14.9,3.2,14.9s15-7.1,15.3-15.3
				c0.1-4.7,1.2-9.3,3.2-13.6c0,0-3.3,1.3-4.6,3.7c0,0,7.1-15.4,2.6-19.3S206,371.1,206,371.1z"/>
		</defs>
		<clipPath id="SVGID_30_">
			<use xlink:href="#SVGID_29_"  style="overflow:visible;"/>
		</clipPath>
		<g class="st31">
			<path class="st8" d="M206,371.9c0,0,4.6,12.9,10.1,17.5l2,6.8c0,0,4.2-7.1,9.1-3.6s3.2,14.9,3.2,14.9s15-7.1,15.3-15.3
				c0.1-4.7,1.2-9.3,3.2-13.6c0,0-3.3,1.3-4.6,3.7c0,0,7.1-15.4,2.6-19.3S206,371.9,206,371.9z"/>
		</g>
	</g>
	<path class="st5" d="M206,371.1c0,0,4.6,12.9,10.1,17.5l2,6.8c0,0,4.2-7.1,9.1-3.6s3.2,14.9,3.2,14.9s15-7.1,15.3-15.3
		c0.1-4.7,1.2-9.3,3.2-13.6c0,0-3.3,1.3-4.6,3.7c0,0,7.1-15.4,2.6-19.3S206,371.1,206,371.1z"/>
	<path class="st30" d="M245.3,371.5l-16.3,5.6c-8.8,1.9-17.9,1.8-26.6-0.4c-14-3.8-21.8-10.8-23.4-12.4l-0.3-0.3
		c1,3.9,4.5,8.8,4.5,8.8c-10.1-1-15.2-11-15.2-11c-3.6,4.5-3,14.6-3,14.6c-5.9-14.5-0.3-22.1-0.3-22.1c-2.3-12,2-16.6,2-16.6
		l3.5,2.3c6.4-14.3,25.2-13.9,25.2-13.9l-2.7,3.2c15.6-7.1,48.1,0,48.1,0l1.6,13.6l5.2-1.6c0.1,0.4,0.3,0.8,0.4,1.2
		c1.4,5,2.3,10.1,2.5,15.2c0,0.1,0,0.2,0,0.2l1.9-1.3l3.3-2.3C255.7,354.3,256,364,245.3,371.5z"/>
	<g>
		<defs>
			<path id="SVGID_31_" d="M245.3,371.5l-16.3,5.6c-8.8,1.9-17.9,1.8-26.6-0.4c-14-3.8-21.8-10.8-23.4-12.4l-0.3-0.3
				c1,3.9,4.5,8.8,4.5,8.8c-10.1-1-15.2-11-15.2-11c-3.6,4.5-3,14.6-3,14.6c-5.9-14.5-0.3-22.1-0.3-22.1c-2.3-12,2-16.6,2-16.6
				l3.5,2.3c6.4-14.3,25.2-13.9,25.2-13.9l-2.7,3.2c15.6-7.1,48.1,0,48.1,0l1.6,13.6l5.2-1.6c0.1,0.4,0.3,0.8,0.4,1.2
				c1.4,5,2.3,10.1,2.5,15.2c0,0.1,0,0.2,0,0.2l1.9-1.3l3.3-2.3C255.7,354.3,256,364,245.3,371.5z"/>
		</defs>
		<clipPath id="SVGID_32_">
			<use xlink:href="#SVGID_31_"  style="overflow:visible;"/>
		</clipPath>
		<g class="st32">
			<path class="st8" d="M211.5,361.6c28,3.3,36.2-18.5,36.4-19.2c1.4,5,2.3,10.1,2.5,15.2C231.4,368.5,211.5,361.6,211.5,361.6z"/>
			<path class="st8" d="M245.3,371.5l-16.3,5.6c-8.8,1.9-17.9,1.8-26.6-0.4c-14-3.8-21.8-10.8-23.4-12.4c-0.6-0.8-1.1-1.7-1.6-2.6
				c0.4,0.7,6.7,11.2,34,14.9c28.3,3.8,44.2-22.3,44.2-22.3S256,364,245.3,371.5z"/>
			<path class="st8" d="M183.2,341.2c0,0,3.1-7.6,16-11.4c0,0-11.6,0.5-17.2,8.7c0,0-0.2-3.6,1.1-5.5c0,0-8.2-0.4-9.7,11.1
				c0,0-4.6,0.9-6.4-1.6c0,0-2,6.3,5,8.2c0,0-4.5,5.7,2.1,13.7c0,0-0.9-7.3,2-12.1c0,0,0.6,8.1,14.3,11.1c0,0-11.9-6.1-9.5-16.4
				c0,0,3.8,9.7,20.5,9.1c0,0-15.3-4.5-17.3-12.3c3.8-1.7,8-2.2,12.1-1.5C196.2,342.4,188.9,339.7,183.2,341.2z"/>
		</g>
	</g>
	<path class="st5" d="M245.3,371.5l-16.3,5.6c-8.8,1.9-17.9,1.8-26.6-0.4c-14-3.8-21.8-10.8-23.4-12.4l-0.3-0.3
		c1,3.9,4.5,8.8,4.5,8.8c-10.1-1-15.2-11-15.2-11c-3.6,4.5-3,14.6-3,14.6c-5.9-14.5-0.3-22.1-0.3-22.1c-2.3-12,2-16.6,2-16.6
		l3.5,2.3c6.4-14.3,25.2-13.9,25.2-13.9l-2.7,3.2c15.6-7.1,48.1,0,48.1,0l1.6,13.6l5.2-1.6c0.1,0.4,0.3,0.8,0.4,1.2
		c1.4,5,2.3,10.1,2.5,15.2c0,0.1,0,0.2,0,0.2l1.9-1.3l3.3-2.3C255.7,354.3,256,364,245.3,371.5z"/>
	<path class="st15" d="M221.6,393.4c0,0,5.2-11.1,10.7-7.7s4.8,9.8,3.5,13.1s-7.1,18.5-12.3,9.8"/>
	<path class="st5" d="M174.3,350.6c-2.8,1.6-4,10.2,2,16.2"/>
	<path class="st5" d="M178.7,349.3c0,11.4,19.9,21.2,42.8,19.2s25.1-7.6,25.1-7.6"/>
	<path class="st5" d="M185.8,347.3c7.1,11.4,46.5,14.2,52.8-6.1"/>
	<path class="st5" d="M178.7,343.9c-2.8-0.9-1-9.1,5.9-12.9"/>
	<path class="st5" d="M167.3,339.8c-1,2.7,1.1,9.7,6.5,8.3"/>
	<path class="st8" d="M252.4,356.5l3.3-2.3C254.6,355.1,253.5,355.8,252.4,356.5z"/>
</g>
</svg>
